<?xml version="1.0" encoding="UTF-8" standalone="no"?>
<svg
   xmlns:dc="http://purl.org/dc/elements/1.1/"
   xmlns:cc="http://creativecommons.org/ns#"
   xmlns:rdf="http://www.w3.org/1999/02/22-rdf-syntax-ns#"
   xmlns:svg="http://www.w3.org/2000/svg"
   xmlns="http://www.w3.org/2000/svg"
   xmlns:sodipodi="http://sodipodi.sourceforge.net/DTD/sodipodi-0.dtd"
   xmlns:inkscape="http://www.inkscape.org/namespaces/inkscape"
   enable-background="new 0 0 210 630"
   viewBox="0 0 210 630"
   version="1.1"
   id="svg492"
   sodipodi:docname="bt-bonus.svg"
   inkscape:version="1.0.1 (3bc2e813f5, 2020-09-07)">
  <metadata
     id="metadata498">
    <rdf:RDF>
      <cc:Work
         rdf:about="">
        <dc:format>image/svg+xml</dc:format>
        <dc:type
           rdf:resource="http://purl.org/dc/dcmitype/StillImage" />
        <dc:title></dc:title>
      </cc:Work>
    </rdf:RDF>
  </metadata>
  <defs
     id="defs496" />
  <sodipodi:namedview
     pagecolor="#ffffff"
     bordercolor="#666666"
     borderopacity="1"
     objecttolerance="10"
     gridtolerance="10"
     guidetolerance="10"
     inkscape:pageopacity="0"
     inkscape:pageshadow="2"
     inkscape:window-width="1920"
     inkscape:window-height="1017"
     id="namedview494"
     showgrid="false"
     inkscape:zoom="2.6984127"
     inkscape:cx="158.32108"
     inkscape:cy="143.6598"
     inkscape:window-x="-8"
     inkscape:window-y="-8"
     inkscape:window-maximized="1"
     inkscape:current-layer="svg492" />
  <g
     fill="#fff"
     id="g490"
     style="fill:#ffffff">
    <circle
       cx="19.8"
       cy="460.7"
       r="2.2"
       id="circle372"
       style="fill:#ffffff" />
    <circle
       cx="26"
       cy="433.9"
       r="2.2"
       id="circle374"
       style="fill:#ffffff" />
    <path
       d="m51.6 455.8c-.6-.6-1.2-1.1-1.9-1.5l-24.1-15.3 6.5 12.3-17.9-12 19.5 30.7c.5.7 1 1.4 1.6 2.1 4.5 4.5 11.7 4.5 16.2 0 4.6-4.5 4.6-11.8.1-16.3zm-3.1 13.1c-2.8 2.8-7.2 2.8-10 0s-2.8-7.2 0-10 7.2-2.8 10 0c2.7 2.8 2.7 7.3 0 10z"
       id="path376"
       style="fill:#ffffff" />
    <path
       d="m48.5 245.8c-1.8-1.8-1.4-4.2-1-5.4.1-.3-.2-.6-.5-.5-1.2.3-3.6.7-4.9-1-1.6-2.2-.6-4.2.2-5.2.2-.3 0-.6-.3-.7-1-.2-2.9-.7-3.9-1.9-1.3-1.7-.8-3.5-.3-4.8-2-.3-4.1-.3-6.2.1-8.3 1.5-14.8 8.6-15.5 17-.9 11.2 7.9 20.6 18.9 20.6 10 0 18.2-7.7 18.9-17.5-1.3.3-3.9.7-5.4-.7zm-13.5 5.7c-3.6 0-6.5-2.9-6.5-6.5s2.9-6.5 6.5-6.5 6.5 2.9 6.5 6.5-2.9 6.5-6.5 6.5z"
       id="path378"
       style="fill:#ffffff" />
    <path
       d="m45.9 220.2c-1.2-.3-2-.3-2.3.2-.1.3-.2 4.3-.2 4.6s1.1 1 1.4 1.1.6.1.8-.1c.1-.3 1.9-4 2.1-4.4.1-.3-.8-1.2-1.8-1.4z"
       id="path380"
       style="fill:#ffffff" />
    <path
       d="m51.2 226.6c-1.6.4-2.8 1.1-3.3 2.7-.4 1.3-.2 3.9 1.1 4.3.9.3 3-.2 3.3-.8.2-.5 1-6.7-1.1-6.2z"
       id="path382"
       style="fill:#ffffff" />
    <path
       d="m193.7 176.9s2-9.4.3-13.6c-1.8-4.2-7.6-8.8-7.6-8.8l-6.2 2.2 2.6 4.7-26.7 4.6c-.4.1-.7.5-.6.9l.4 2.5c.1.4.5.7.9.6l15.9-2.7-10.7 24.3c-.4.9 0 1.9.9 2.3s1.9 0 2.3-.9l9.8-22.3 9.9 22.5c.4.9 1.4 1.3 2.3.9s1.3-1.4.9-2.3l-11.1-25.3 8.5-1.4z"
       id="path384"
       style="fill:#ffffff" />
    <path
       d="m187.1 311.7c1.9 0 3.9-.1 4.6-.1 2.4 0 2.5-4 .1-4h-25.8l-11.6 21.7h42.3z"
       id="path386"
       style="fill:#ffffff" />
    <path
       d="m178.5 294.4c-.2-.3-1.4.4-2.2.3-.4 0-1.4-.3-1.8-.4-.5-.1-1.9-.3-2.3.1-.1.1-1.6 3.1-2.3 4.7-2.5 0-7.3 0-8.1 0-2.4 0-2.5 4-.1 4h20.5z"
       id="path388"
       style="fill:#ffffff" />
    <circle
       cx="35"
       cy="315"
       r="2.2"
       id="circle390"
       style="fill:#ffffff" />
    <path
       d="m49.4 321.3c-1.9 3.6-6 7-6.1 7.2-.4.4-1 .5-1.5.5-.7 0-1.3-.3-1.8-.8-.8-1-.7-2.4.3-3.2 0 0 3.6-3 5-5.8 1-1.8 3.6-9.9 5.6-16.6-3.7-4.7-9.5-7.8-16-7.8-11.2 0-20.3 9.1-20.3 20.3s9.1 20.3 20.3 20.3 20.3-9.1 20.3-20.3c0-2.4-.4-4.7-1.2-6.9-1.6 5.1-3.6 11.2-4.6 13.1zm-22.2-6.3c0-4.3 3.5-7.8 7.8-7.8s7.8 3.5 7.8 7.8-3.5 7.8-7.8 7.8-7.8-3.5-7.8-7.8z"
       id="path392"
       style="fill:#ffffff" />
    <path
       d="m128.8 307.6c-.7-1.8-11.7.7-24.5 5.7s-22.6 10.6-21.8 12.4c.4.9 3.2.7 7.4-.2 4.8 6.8 13.7 9.8 21.8 6.6s12.6-11.4 11.5-19.6c3.8-2.2 5.9-4 5.6-4.9z"
       id="path394"
       style="fill:#ffffff" />
    <path
       d="m102.6 309.1c6.1-2.4 12-4.3 16.7-5.5-4.9-6.2-13.4-8.8-21.1-5.8s-12.2 10.7-11.6 18.6c4.3-2.3 9.9-4.9 16-7.3z"
       id="path396"
       style="fill:#ffffff" />
    <path
       d="m187 237h-12-12l-3 9.5h15 15z"
       id="path398"
       style="fill:#ffffff" />
    <path
       d="m193 251h-18-18l-3 10h21 21z"
       id="path400"
       style="fill:#ffffff" />
    <path
       d="m167 223.5v9h4.7v-4.5h6.5v4.5h4.8v-9z"
       id="path402"
       style="fill:#ffffff" />
    <path
       d="m31.6 171.6 2.6-11.9c.2-.9 1.4-.9 1.6 0l2.6 11.9 11.8 2.6c.9.2.9 1.4 0 1.6l-11.8 2.6-2.6 11.9c-.2.9-1.4.9-1.6 0l-2.6-11.9-11.8-2.6c-.9-.2-.9-1.4 0-1.6z"
       id="path404"
       style="fill:#ffffff" />
    <circle
       cx="43.7"
       cy="165.9"
       r="2.2"
       id="circle406"
       style="fill:#ffffff" />
    <circle
       cx="50.4"
       cy="159.9"
       r="2.2"
       id="circle408"
       style="fill:#ffffff" />
    <circle
       cx="19.1"
       cy="189.4"
       r="2.2"
       id="circle410"
       style="fill:#ffffff" />
    <circle
       cx="25.8"
       cy="183.4"
       r="2.2"
       id="circle412"
       style="fill:#ffffff" />
    <circle
       cx="43.7"
       cy="183.4"
       r="2.2"
       id="circle414"
       style="fill:#ffffff" />
    <circle
       cx="50.4"
       cy="189.4"
       r="2.2"
       id="circle416"
       style="fill:#ffffff" />
    <circle
       cx="25.8"
       cy="165.9"
       r="2.2"
       id="circle418"
       style="fill:#ffffff" />
    <circle
       cx="19.1"
       cy="159.9"
       r="2.2"
       id="circle420"
       style="fill:#ffffff" />
    <path
       d="m86 172.5 19 23 19-23z"
       id="path422"
       style="fill:#ffffff" />
    <path
       d="m98.2 158 6.8 10 6.7-10z"
       id="path424"
       style="fill:#ffffff" />
    <path
       d="m124 168-6.8-10-6.7 10z"
       id="path426"
       style="fill:#ffffff" />
    <path
       d="m99.5 168-6.8-10-6.7 10z"
       id="path428"
       style="fill:#ffffff" />
    <path
       d="m174.9 433.9-20.8 35.3h41.8zm.1 23.9c-2.3 0-4.2-1.9-4.2-4.2s1.9-4.2 4.2-4.2 4.2 1.9 4.2 4.2-1.9 4.2-4.2 4.2z"
       id="path430"
       style="fill:#ffffff" />
    <path
       d="m89.2 250.2c-2.4 2.4-4.5 8.4-4.5 8.4s6-2.1 8.4-4.5z"
       id="path432"
       style="fill:#ffffff" />
    <path
       d="m96 257c-2.4 2.4-4.5 8.4-4.5 8.4s6-2.1 8.4-4.5z"
       id="path434"
       style="fill:#ffffff" />
    <path
       d="m116.1 247.4 6.7-11.1c1.6-2.7 1.4-8.1.3-9.2s-6.5-1.4-9.2.3l-11.1 6.7-12.2-.2-5.7 5.7 12.9 12.9 12.9 12.9 5.7-5.7zm-10.8-10.8 11.1-6.7 3.9 3.9-6.7 11z"
       id="path436"
       style="fill:#ffffff" />
    <path
       d="m122.1 378.6c-2.6-4.2-8-8.1-8-8.1s.6-2.2.4-2.9c-.1-.4-1.1-.9-1.1-.9s-1.1-.5-1.4-.3c-.6.3-2 2.1-2 2.1s-6.4-1.9-11.3-1.4-10.8 3-10.8 3-1.6 3.2-1.8 3.6c1.3 1.5 5.6 4.3 6.2 4.7.8-1.1 2.1-2.7 2.5-3 .7-.6 1.3-.6 2-.2.9.6-.1 2.8-1.4 5.1 1.9 1.3 5.8 3.2 7 3.9 1.1-2.2 2.8-4.6 4.3-3.9s.6 3.5-.5 5.8c1.3.6 5.2 2.5 7.3 3.2 1-2.4 2.2-4.6 3.2-4.2.8.3 1.1.8 1.1 1.7 0 .6-.5 2.6-.9 3.8.8.3 5.6 2 7.6 2.1.2-.4 1.8-3.6 1.8-3.6s-1.6-6.3-4.2-10.5z"
       id="path438"
       style="fill:#ffffff" />
    <path
       d="m92.4 404.1 7.3-14.8 4 2-7.3 14.8z"
       id="path440"
       style="fill:#ffffff" />
    <path
       d="m187.8 376.9-6.1 4.1-6.1-4.1-6.1 4.1v-9.2l-6.1-8.2-6.1 8.2v30.7h13.8v-6.9c0-2.5 2.1-4.6 4.6-4.6s4.6 2.1 4.6 4.6v6.9h13.8v-21.5z"
       id="path442"
       style="fill:#ffffff" />
    <path
       d="m58.3 396.8c-1.4-1.9-3.8-4.9-8-8.5-4.6-3.8-8.1-5.2-8.1-5.2s2-3.7 2.8-5.1 1.9-3.9 1.4-4.5c-.5-.5-3.1.7-4.5 1.4-1.4.8-5.1 2.8-5.1 2.8s-1.4-3.5-5.2-8.1c-3.5-4.3-6.5-6.7-8.5-8-1-.7-1.6 1-2.1 3.9-1 5.7-1.5 12.7 4.6 23 0 0-6.5 4.6-8.2 5.6-1 .6-.8 1.4-.4 1.9.4.4 3 3.2 3.4 3.5.3.4 3.1 3 3.5 3.4s1.2.6 1.9-.4c1.1-1.6 5.6-8.2 5.6-8.2 10.2 6.1 17.3 5.6 23 4.6 2.9-.4 4.6-1 3.9-2.1z"
       id="path444"
       style="fill:#ffffff" />
    <path
       d="m108.3 449.9c-9-3.6-17.1-1.7-26 2.5 3.6 9.2 8.1 16.1 17.2 19.7 9 3.6 17.1 1.7 26-2.5-3.6-9.1-8.2-16.1-17.2-19.7zm2.1 13.7c-1.4 3.6-5.5 5.4-9.2 3.9-3.6-1.4-5.4-5.5-3.9-9.2 1.4-3.6 5.5-5.4 9.2-3.9 3.6 1.5 5.4 5.6 3.9 9.2z"
       id="path446"
       style="fill:#ffffff" />
    <path
       d="m126 453.3c.2.5.2.9-.2 1.2-.6.4-.5.3-1 .5-.4.2-.7.1-1.1-.5-4.3-6.2-7.5-9.2-13.9-11.7-6.5-2.5-11.6-2.2-17.2-1.4-3.2.5-3.4-.4-2.6-1.3s2.7-1.1 2.5-2.1-2.9.6-3.9-.1c-1.2-.8 1.5-2.7 5.6-3.6 9.6-1.9 24 1.8 31.8 19z"
       id="path448"
       style="fill:#ffffff" />
    <path
       d="m47.2 29.2h-2.8v-5.4c0-4.3-4.1-9-9.5-9.1-5.4 0-9.5 4.8-9.5 9.1v5.4h-2.6c-1.3 0-2.3 1-2.3 2.3v17.3c0 1.3 1 2.3 2.3 2.3h24.4c1.3 0 2.3-1 2.3-2.3v-17.2c0-1.3-1-2.4-2.3-2.4zm-18.3-5.3c0-2.3 2.3-5.6 6-5.6s6 3.3 6 5.6v5.4h-12z"
       id="path460"
       style="fill:#ffffff" />
    <path
       d="m57 518.4s-5.1.9-10.1 4.4c0 .7.1 1.4.1 2.2 0 8.6-3.5 15-6.1 18.6 3.7-.5 8.5-2.1 12.3-7.1 5.6-7.5 3.8-18.1 3.8-18.1z"
       id="path462"
       style="fill:#ffffff" />
    <path
       d="m25.5 513c-2.9-2.8-5.4-3.9-5.4-3.9s-1 2.5-1.3 6.3c1.5.6 3.3 1.4 5.1 2.5.4-1.8 1-3.4 1.6-4.9z"
       id="path464"
       style="fill:#ffffff" />
    <path
       d="m35 506.5s-7.4 6.8-7.4 18.5 7.4 18.5 7.4 18.5 7.4-6.8 7.4-18.5-7.4-18.5-7.4-18.5z"
       id="path466"
       style="fill:#ffffff" />
    <path
       d="m51.2 515.4c-.3-3.9-1.3-6.3-1.3-6.3s-2.4 1.1-5.4 3.9c.6 1.5 1.2 3.1 1.6 4.9 1.8-1.1 3.5-1.9 5.1-2.5z"
       id="path468"
       style="fill:#ffffff" />
    <path
       d="m13 518.4s5.1.9 10.1 4.4c0 .7-.1 1.4-.1 2.2 0 8.6 3.5 15 6.1 18.6-3.7-.5-8.5-2.1-12.3-7.1-5.6-7.5-3.8-18.1-3.8-18.1z"
       id="path470"
       style="fill:#ffffff" />
    <path
       d="m86 514.5 1 4v25.5h11.3v-18.8c0-3.7 3-6.7 6.7-6.7s6.7 3 6.7 6.7v18.8h11.3v-25.5l1-4z"
       id="path472"
       style="fill:#ffffff" />
    <path
       d="m121 506h-9.8l-6.2-4-6.2 4h-9.8l-1 4h34z"
       id="path474"
       style="fill:#ffffff" />
    <path
       d="m194 513.8c-2.7-2-6.3-2.6-9.8-2.8.3-1.4.8-3.5 1.3-4.7.9-2.4-.6-1.9-1.5-.8-.6.7-2.2 3-2.9 4.3-.6 1.1-1.9.7-1.7-.4.3-2.1 1-4.4 2.1-7 .7-1.7-.7-1.5-1.4-.8-1.7 1.8-4.1 6.1-4.7 7.3-.6 1.3-2.1.7-1.9-.4.4-2.5 2.6-7.8 2.9-8.4.4-.9-.5-1.6-1.8-.4-.7.6-3.6 4.1-5.9 9.1-3.7-.7-7.5-.7-11 1.5-6.3 4.1-6.3 13.3-2 18 3.1 3.5 4.9 5 6.2 9.8 1.6 5.8 5.3 9.9 11.1 10.6 5.3.6 9.2-3.3 11.6-7.6 2.1-3.7 4.6-6 9.9-9.8 5.9-4.2 4.9-13.5-.5-17.5zm-30.4 12.8c-3.4-.4-5.9-3.5-5.4-6.9.4-3.4 3.5-5.9 6.9-5.4 3.4.4 5.9 3.5 5.4 6.9-.3 3.4-3.4 5.8-6.9 5.4zm12.2 7c-.2.8-1.2 1.5-3.8 1-2.5-.5-2.7-1.5-2.4-2.5.3-1.1 3.1-5.2 4.1-5s2.4 5.1 2.1 6.5zm15.8-9.9c-.4 3.5-3.6 6.1-7.2 5.6-3.5-.4-6.1-3.6-5.6-7.2.4-3.5 3.6-6.1 7.2-5.6 3.5.4 6.1 3.6 5.6 7.2z"
       id="path476"
       style="fill:#ffffff" />
    <path
       d="m25 582.8-.2-9c0-.7-.6-1.2-1.3-1.3-.7 0-1.3.6-1.3 1.3l-.2 9-5.2 5.2v24.5h13.5v-24.5z"
       id="path478"
       style="fill:#ffffff" />
    <path
       d="m48.4 572.5h-13.7v40h19.5v-21.5l-5.9-5.9zm-3.4 10.1h-6.8v-6.8h6.8z"
       id="path480"
       style="fill:#ffffff" />
    <path
       d="m130.9 591s-8.4-2.1-17.4-.6c-7.5 1.2-15.2 2.5-17.8 2.9-3.7-3.9-10.6-11.1-11.2-11.7-.9-1-2.1-.7-1.8.6l4.1 16.5c-1.2.3-4.1 1.1-5.4 3.5 2.3 1.5 5.3 1 6.5.7l.9 3.6 8.1-1-1.7 6.9c.1.4.4.7.6.7l10.9-2.4c.5-.1.8-.5.9-.9l2.9-6.3s4.9-1.1 10.4-3.1c8.2-2.9 10.8-6.4 10.8-6.4z"
       id="path482"
       style="fill:#ffffff" />
    <path
       d="m104.9 581.6c-4.1 0-7.2 3.1-7.9 7l15.4-2.5c-1.4-2.6-4.4-4.5-7.5-4.5z"
       id="path484"
       style="fill:#ffffff" />
    <path
       d="m174.4 573.7-22.4 33.6h34.7z"
       id="path486"
       style="fill:#ffffff" />
    <path
       d="m181.3 579.4 10.2 27.9h7.5z"
       id="path488"
       style="fill:#ffffff" />
  </g>
  <style
     type="text/css"
     id="style617">
	.st0{fill:#FFFFFF;}
</style>
  <g
     id="g725"
     transform="translate(0,70)"
     style="fill:#ffffff">
	
	
	
	
	
	
	
	
	
	<circle
   class="st0"
   cx="35"
   cy="245"
   r="2.2"
   id="circle637"
   style="fill:#ffffff" />

	
	
	
	
	
	
	
	
	
	
	
	
	
	
	
	
	
	
	
	
	
	
	
	
	
	
	
	
	
	
	
	
	
	
	
	
	
	<g
   transform="translate(-5.2,-3.9)"
   id="g715"
   style="fill:#ffffff">
		<path
   class="st0"
   d="m 46.5,18.3 v 10.4 h 11.7 c 0.4,0 0.8,0.1 1.1,0.4 l 0.4,1.1 -0.4,1.1 c -0.3,0.3 -0.7,0.4 -1.1,0.4 H 44.9 c -0.4,0 -0.8,-0.1 -1.1,-0.4 C 43.5,31 43.4,30.6 43.4,30.2 V 18.3 c 0,-0.4 0.1,-0.8 0.4,-1.1 0.3,-0.3 0.7,-0.4 1.1,-0.4 0.4,0 0.8,0.1 1.1,0.4 0.2,0.3 0.5,0.7 0.5,1.1 M 45,37.1 h 13.3 l 1.1,0.4 c 0.3,0.3 0.4,0.7 0.4,1.1 L 59.4,39.7 58.3,40 H 46.5 v 17.7 l -0.4,1.1 c -0.3,0.3 -0.7,0.5 -1.1,0.5 -0.4,0 -0.8,-0.1 -1.1,-0.5 -0.3,-0.3 -0.4,-0.7 -0.4,-1.1 V 38.5 c 0,-0.4 0.1,-0.8 0.4,-1.1 0.3,-0.3 0.7,-0.3 1.1,-0.3 M 36.9,18.3 v 11.8 l -0.5,1.1 -1.1,0.4 H 22.2 c -0.4,0 -0.8,-0.1 -1.1,-0.4 -0.3,-0.3 -0.4,-0.7 -0.4,-1.1 0,-0.4 0.1,-0.8 0.4,-1.1 0.3,-0.3 0.7,-0.4 1.1,-0.4 H 34 V 18.3 c 0,-0.4 0.1,-0.8 0.4,-1.1 0.3,-0.3 0.7,-0.4 1.1,-0.4 0.4,0 0.8,0.1 1.1,0.4 0.2,0.3 0.3,0.7 0.3,1.1 M 21.1,37.5 c 0.3,-0.3 0.7,-0.4 1.1,-0.4 h 13.1 c 0.4,0 0.8,0.1 1.1,0.4 0.3,0.3 0.5,0.7 0.5,1.1 v 19.2 l -0.5,1.1 -1.1,0.5 c -0.4,0 -0.8,-0.1 -1.1,-0.5 -0.3,-0.3 -0.4,-0.7 -0.4,-1.1 V 40.1 H 22 c -0.4,0 -0.8,-0.1 -1.1,-0.4 -0.3,-0.3 -0.4,-0.7 -0.4,-1.1 0.2,-0.5 0.4,-0.9 0.6,-1.1"
   id="path713"
   style="fill:#ffffff" />

	</g>

	<g
   transform="translate(-5.2,-4.05)"
   id="g719"
   style="fill:#ffffff">
		<path
   class="st0"
   d="m 112.3,22.1 c 0,-0.7 -0.3,-1.2 -0.8,-1.7 -0.4,-0.4 -1.1,-0.7 -1.7,-0.7 -0.7,0 -1.2,0.3 -1.6,0.7 -0.4,0.4 -0.7,1.1 -0.7,1.7 0,0.5 0.3,1.1 0.7,1.4 l 1.6,0.8 1.7,-0.8 0.8,-1.4 m -0.8,4.6 v 2.1 h 16.6 l 1.1,0.4 c 0.3,0.3 0.4,0.7 0.4,1.1 l -0.4,1.1 -1.1,0.4 h -16.6 v 24.4 c 3,-0.4 5.6,-2.1 8,-5.3 2.6,-3.5 4.1,-7.5 4.3,-11.8 l -0.1,-0.4 c 0,-0.4 0.1,-0.8 0.4,-1.1 0.3,-0.3 0.5,-0.5 1.1,-0.5 h 2.9 c 0.4,0 0.8,0.1 1.1,0.4 l 0.5,1.1 -0.4,1.1 c -0.3,0.3 -0.7,0.5 -1.1,0.5 h -1.6 c -0.4,4.5 -2,8.7 -4.9,12.5 -3.3,4.3 -7,6.4 -11.2,6.6 h -0.5 -0.4 c -4.2,0 -8,-2.2 -11.2,-6.6 -2.8,-3.8 -4.3,-7.9 -4.7,-12.5 h -1.6 c -0.4,0 -0.8,-0.1 -1.1,-0.4 -0.3,-0.3 -0.4,-0.7 -0.4,-1.1 0,-0.4 0.1,-0.8 0.4,-1.1 0.3,-0.3 0.7,-0.4 1.1,-0.4 H 95 l 1.1,0.4 c 0.3,0.3 0.4,0.7 0.4,1.1 v 0.5 c 0.1,4.2 1.6,8.1 4.2,11.8 2.4,3.2 5,4.9 8,5.3 V 31.8 H 92 c -0.4,0 -0.8,-0.1 -1.1,-0.4 -0.3,-0.3 -0.4,-0.7 -0.4,-1.1 0,-0.4 0.1,-0.8 0.4,-1.1 0.3,-0.3 0.7,-0.4 1.1,-0.4 h 16.6 v -2.2 c -0.8,-0.3 -1.4,-0.7 -2,-1.2 -0.9,-0.9 -1.4,-2.1 -1.3,-3.4 0,-1.3 0.4,-2.5 1.3,-3.4 0.9,-0.9 2.1,-1.4 3.4,-1.3 1.3,0 2.5,0.4 3.5,1.3 0.9,0.9 1.4,2.1 1.4,3.4 0,1.3 -0.5,2.4 -1.4,3.4 l -2,1.3"
   id="path717"
   style="fill:#ffffff" />

	</g>

	<g
   transform="translate(-5.25,-3.85)"
   id="g723"
   style="fill:#ffffff">
		<path
   class="st0"
   d="m 181,16.9 7,3.2 0.8,0.8 V 22 l -0.9,0.8 h -1.1 l -4.9,-2.2 v 5.1 l 10.5,4.7 0.5,0.8 v 1.2 l -0.8,0.7 H 191 l -9.2,-4.2 v 5.8 l 12.6,5.6 0.8,0.8 v 1.2 l -0.9,0.8 h -1.1 L 181.8,38 v 6 l 17.2,8.9 0.8,0.9 -0.3,1.1 -0.8,0.7 -1.2,-0.1 -15.8,-8.5 v 10.6 l -0.4,1.1 -1.1,0.5 c -0.4,0 -0.8,-0.1 -1.1,-0.5 -0.3,-0.3 -0.4,-0.7 -0.4,-1.1 V 47 l -15.7,8.2 -1.1,0.1 -0.9,-0.7 c -0.1,-0.4 -0.3,-0.8 -0.1,-1.1 0.1,-0.4 0.4,-0.8 0.8,-0.9 l 17.1,-8.9 v -6.2 l -11.6,5.3 H 166 c -0.4,-0.1 -0.7,-0.4 -0.8,-0.8 -0.1,-0.4 -0.1,-0.7 0,-1.2 0.1,-0.4 0.4,-0.7 0.8,-0.8 l 12.7,-5.8 v -5.6 l -9.2,4.2 h -1.2 l -0.8,-0.7 c -0.1,-0.4 -0.1,-0.8 0,-1.2 0.1,-0.4 0.4,-0.7 0.8,-0.8 l 10.4,-4.7 v -5.1 l -4.7,2.2 h -1.2 L 172,21.7 c -0.1,-0.4 -0.1,-0.8 -0.1,-1.2 0.1,-0.4 0.4,-0.7 0.8,-0.8 l 6.7,-3 c 0,-0.1 0.1,-0.1 0.3,-0.1 h 0.1 0.5 0.4 l 0.3,0.3"
   id="path721"
   style="fill:#ffffff" />

	</g>

</g>
</svg>
