<svg xmlns="http://www.w3.org/2000/svg" viewBox="0 0 126 150" width="126" height="150">
	<style>
		tspan { white-space:pre }
		.shp0 { fill: #000000 } 
		.shp1 { fill: #d2d2d2 } 
		.shp2 { fill: none;stroke: #000000 } 
		.shp3 { fill: none;stroke: #000000;stroke-width: 1.14 } 
		.shp4 { fill: #895e08 } 
		.shp5 { fill: #ffc61a } 
		.shp6 { opacity: 0.6;fill: none } 
		.shp7 { fill: #167085 } 
	</style>
	<g id="Layer">
		<g id="Layer">
			<g id="Layer">
				<g id="S_mbolo_1_0_Layer0_0_FILL">
					<path id="Layer" fill-rule="evenodd" class="shp0" d="M78.03 5.42C76.57 5.42 81.75 7.54 93.58 11.77C105.55 16.03 113.64 18.39 117.84 18.84L113.4 21.3C114.27 22.15 114.84 23.13 115.09 24.26C115.29 25.08 115.43 26.56 115.51 28.71C115.68 32.32 115.54 35.87 115.09 39.34L114.41 43.41L113.95 50.65C113.75 55.73 113.99 58.98 114.67 60.39L111.7 58.91L110.77 70.94C110.55 75 109.73 78.98 108.32 82.88C107.61 84.85 106.93 86.41 106.28 87.54L105.52 88.55L105.14 89.19L105.6 91.77C105.66 93.86 105.04 95.81 103.74 97.62C102.67 99.17 101.37 100.04 99.84 100.24L98.45 100.24L97.9 100.12C97.08 101.81 96.19 105.44 95.23 111L93.53 119.94C92.35 122.82 89.36 126.82 84.56 131.96L70.07 146.24C67.02 148.64 64.34 149.79 62.03 149.71C59.65 149.6 57.3 148.66 54.95 146.91C53.23 145.64 50.08 142.72 45.51 138.15L35.17 127.86C32.27 124.64 30.33 121.49 29.37 118.41C28.78 116.49 27.92 111.34 26.79 102.95L25.26 90.97L23.49 89.74C22.16 88.72 20.83 87.1 19.5 84.87C16.85 80.41 15.52 75.2 15.52 69.24L16.75 50.78L12.3 53.57C12.81 48.86 13.46 43.96 14.25 38.88C15.78 28.77 17.16 22.87 18.4 21.17L13.87 19.31C16.5 18.83 20.7 17.52 26.49 15.37L34.37 12.28L29.29 11.6L27.76 11.22L26.92 10.88L37.12 8.04C44.44 5.87 49.39 4.18 51.99 2.96L47.71 2.37C47.57 2.34 47.43 2.31 47.29 2.28C46.58 2.11 45.61 1.75 44.36 1.18C42.87 0.48 42.39 0.19 42.92 0.34C44.76 0.73 48.08 0.8 52.88 0.55L59.48 0L71.98 1.44C74.1 1.72 76.11 2 78.03 2.28C84.56 3.24 89.85 4.23 93.92 5.25L90.95 6.18C89.54 6.63 86.96 6.63 83.2 6.18L78.03 5.42ZM99.55 93.3L98.49 98.04L100.01 97.66C101.12 97.04 101.82 95.82 102.13 94.02C102.3 92.97 102.3 92.24 102.13 91.81L101.84 91.43L99.55 93.3ZM96.67 43.49C95.48 44.14 93.76 44.72 91.5 45.23C86.98 46.22 82.11 46.33 76.89 45.57C73.22 45 69.1 43.11 64.52 39.89C63.08 38.88 61.69 37.77 60.33 36.59L58.76 35.19L59.61 36.67C60.4 37.92 61.38 39.16 62.53 40.4C66.26 44.3 71.1 47.35 77.06 49.55C73.78 49.04 70.13 48.02 66.09 46.5C58.07 43.45 52.24 39.41 48.6 34.39L34.33 48.07C33.37 49.05 32.49 50.13 31.7 51.28C29.16 55.04 27.89 58.86 27.89 62.76C27.89 66.06 27.72 69.52 27.38 73.14C27.13 75.76 27.09 77.4 27.25 78.05C29.17 86.41 30.49 95.32 31.19 104.77L31.87 113.16C32.15 115.62 32.53 117.41 33.01 118.54C34.31 121.5 37.21 125.27 41.7 129.85L54.57 142.25C56.55 144.06 58.16 145.25 59.4 145.81C60.36 146.29 61.67 146.29 63.34 145.81C65.96 145.11 68.74 143.26 71.68 140.26L82.73 129.68C87.03 125.33 89.57 121.76 90.36 118.96C90.78 117.49 91.35 113.24 92.05 106.21C92.7 100 93.76 95.13 95.23 91.6C96.22 89.23 97.05 86.58 97.73 83.64L98.45 79.96L99.08 57.51L99.59 53.19C99.9 51.13 99.52 48.9 98.45 46.5L96.67 43.49ZM92.86 37.35C89.92 38.17 85.85 38.1 80.66 37.14L73.76 35.44C76.83 37.9 81.29 39.44 87.14 40.06L94.97 40.27L92.86 37.35ZM102.26 77.75C101.5 83.01 100.88 86.58 100.4 88.47L102.22 86.82C103.6 85.41 104.59 83.98 105.18 82.54C105.8 81.13 106.24 79.01 106.49 76.19L106.66 72.37L106.11 69.62L105.27 67.84C104.67 66.94 104.19 67.14 103.83 68.44C103.67 69 103.46 70.04 103.19 71.57C102.94 73.14 102.63 75.2 102.26 77.75ZM21.96 66.28C21.59 64.98 21.11 64.79 20.52 65.73C20.21 66.18 19.94 66.76 19.72 67.46L19.12 70.22L19.33 74.03C19.59 76.85 20.01 78.98 20.61 80.42C21.23 81.86 22.21 83.27 23.57 84.66L25.39 86.31C25.31 86 25.23 85.63 25.14 85.21C24.7 83.18 24.16 79.97 23.53 75.59L22.64 70.38L21.96 66.28Z" />
					<path id="Layer" fill-rule="evenodd" class="shp1" d="M25.39 86.31L23.57 84.66C22.21 83.27 21.23 81.86 20.61 80.42C20.01 78.98 19.59 76.85 19.33 74.03L19.12 70.22L19.72 67.46C19.94 66.76 20.21 66.18 20.52 65.73C21.11 64.79 21.59 64.98 21.96 66.28L22.64 70.38L23.6 76.09C23.58 75.92 23.55 75.76 23.53 75.59L22.64 70.38L25.14 85.21C25.23 85.63 25.31 86 25.39 86.31ZM103.83 68.44C104.19 67.14 104.67 66.94 105.27 67.84L106.11 69.62L106.66 72.37L106.49 76.19C106.24 79.01 105.8 81.13 105.18 82.54C104.59 83.98 103.6 85.41 102.22 86.82L100.4 88.47L103.19 71.57C102.94 73.14 102.63 75.2 102.26 77.75C101.5 83.01 100.88 86.58 100.4 88.47L103.19 71.57C103.46 70.04 103.67 69 103.83 68.44ZM99.08 57.51L98.45 79.96L97.73 83.64C97.05 86.58 96.22 89.23 95.23 91.6C93.76 95.13 92.7 100 92.05 106.21C91.35 113.24 90.78 117.49 90.36 118.96C89.57 121.76 87.03 125.33 82.73 129.68L71.68 140.26C68.74 143.26 65.96 145.11 63.34 145.81C61.67 146.29 60.36 146.29 59.4 145.81C58.16 145.25 56.55 144.06 54.57 142.25L41.7 129.85C37.21 125.27 34.31 121.5 33.01 118.54C32.53 117.41 32.15 115.62 31.87 113.16L31.19 104.77C30.49 95.32 29.17 86.41 27.25 78.05C27.09 77.4 27.13 75.76 27.38 73.14C27.72 69.52 27.89 66.06 27.89 62.76C27.89 58.86 29.16 55.04 31.7 51.28C32.49 50.13 33.37 49.05 34.33 48.07L48.6 34.39C52.24 39.41 58.07 43.45 66.09 46.5C70.13 48.02 73.78 49.04 77.06 49.55C71.1 47.35 66.26 44.3 62.53 40.4C61.38 39.16 60.4 37.92 59.61 36.67L58.76 35.19L60.33 36.59C61.69 37.77 63.08 38.88 64.52 39.89C69.1 43.11 73.22 45 76.89 45.57C82.11 46.33 86.98 46.22 91.5 45.23C93.76 44.72 95.48 44.14 96.67 43.49L98.45 46.5C99.52 48.9 99.9 51.13 99.59 53.19L99.08 57.51ZM73.76 35.44L80.66 37.14C85.85 38.1 89.92 38.17 92.86 37.35L94.97 40.27L87.14 40.06C81.29 39.44 76.83 37.9 73.76 35.44Z" />
				</g>
				<path id="S_mbolo_1_0_Layer0_0_1_STROKES" class="shp2" d="M101.58 71.36L102.6 71.36C102.82 71.41 103.02 71.49 103.21 71.59C103.63 71.84 103.95 72.25 104.16 72.8C105.15 75.37 103.9 80.59 100.4 88.47" />
				<path id="S_mbolo_1_0_Layer0_0_2_STROKES" fill-rule="evenodd" class="shp3" d="M25.14 69.88L23.82 69.92C23.37 70 22.98 70.15 22.66 70.38M25.14 85.23C25.62 86.18 26.14 87.18 26.7 88.21M22.66 70.38C22.29 70.64 22 71 21.79 71.44C20.63 73.85 21.74 78.44 25.14 85.23" />
			</g>
		</g>
	</g>
	<path id="Layer" class="shp1" d="M5.95 20.99C5.73 20.99 5.51 21.03 5.3 21.12C5.1 21.2 4.91 21.33 4.75 21.49C4.59 21.64 4.47 21.83 4.38 22.04C4.3 22.24 4.26 22.46 4.26 22.69L4.26 55.99L7.65 53.66L7.65 22.69C7.65 22.46 7.6 22.24 7.52 22.04C7.43 21.83 7.31 21.65 7.15 21.49C6.99 21.33 6.81 21.21 6.6 21.12C6.39 21.03 6.17 20.99 5.95 20.99L5.95 20.99Z" />
	<path id="Layer" class="shp4" d="M15.73 48.11L4.26 55.99L4.26 84.17L11.16 84.17L11.16 74.12C11.16 71.89 10.41 67.19 14.53 67.19L15.73 48.11Z" />
	<path id="Layer" class="shp1" d="M120.64 20.99C120.41 20.99 120.19 21.03 119.99 21.12C119.78 21.2 119.6 21.33 119.44 21.49C119.28 21.64 119.16 21.83 119.07 22.04C118.98 22.24 118.94 22.46 118.94 22.69L118.94 53.66L122.33 55.99L122.33 22.69C122.33 22.46 122.29 22.24 122.2 22.04C122.12 21.83 121.99 21.65 121.83 21.49C121.68 21.33 121.49 21.21 121.29 21.12C121.08 21.03 120.86 20.99 120.64 20.99L120.64 20.99Z" />
	<path id="Layer" class="shp4" d="M110.85 48.11L122.33 55.99L122.33 84.17L115.42 84.17L115.42 74.12C115.42 71.89 116.18 67.19 112.06 67.19L110.85 48.11Z" />
	<path id="Layer" class="shp5" d="M14.53 67.25C10.39 67.25 11.16 71.94 11.16 74.17L11.16 91.55C11.22 92.04 11.36 92.51 11.59 92.95C11.82 93.39 12.12 93.78 12.49 94.11C12.85 94.44 13.27 94.7 13.73 94.89C14.19 95.07 14.68 95.17 15.17 95.18L16.73 95.18L16.73 67.25L14.53 67.25Z" />
	<path id="Layer" class="shp6" d="M0 0L126 0L126 150L0 150L0 0Z" />
	<path id="Layer" class="shp7" d="M104 61.21C103.53 61.23 103.06 61.3 102.6 61.43C102.14 61.56 101.7 61.74 101.29 61.97C100.88 62.2 100.49 62.47 100.14 62.79C99.79 63.11 99.48 63.47 99.21 63.86C99.1 70.71 98.84 79.32 98.28 84.13C98.28 84.39 98.28 84.65 98.27 84.91C98.26 85.17 98.24 85.43 98.22 85.69C98.19 85.95 98.16 86.21 98.12 86.47C98.08 86.72 98.03 86.98 97.98 87.23L97.98 95.51C97.98 97.87 100.47 101.52 103.56 101.52C104.37 101.52 105.17 101.36 105.92 101.07C106.67 100.77 107.36 100.33 107.96 99.78C108.55 99.23 109.03 98.57 109.38 97.84C109.73 97.11 109.94 96.32 110 95.51L110 66.88C110.01 63.68 107.99 61.21 104 61.21Z" />
	<path id="Layer" class="shp7" d="M26.96 84.18C26.35 77.35 26.31 75.79 27.3 63.61C27.01 63.24 26.68 62.91 26.32 62.61C25.96 62.31 25.56 62.06 25.14 61.85C24.72 61.65 24.27 61.49 23.82 61.39C23.36 61.29 22.89 61.24 22.42 61.24C21.67 61.2 20.91 61.31 20.2 61.58C19.5 61.85 18.85 62.26 18.32 62.79C17.78 63.32 17.36 63.96 17.09 64.67C16.81 65.37 16.69 66.13 16.73 66.88L16.73 95.51C16.82 96.31 17.04 97.09 17.4 97.8C17.76 98.52 18.25 99.17 18.83 99.72C19.42 100.27 20.1 100.71 20.84 101.01C21.58 101.32 22.38 101.49 23.18 101.52C26.28 101.52 28.75 97.87 28.75 95.51L28.75 91.76C28.51 91.15 28.3 90.54 28.1 89.92C27.9 89.3 27.73 88.67 27.58 88.03C27.43 87.4 27.31 86.76 27.2 86.12C27.1 85.48 27.02 84.83 26.96 84.18L26.96 84.18Z" />
	<path id="Layer" class="shp5" d="M112.06 67.25L109.99 67.25L109.99 95.18L111.39 95.18C111.89 95.17 112.38 95.07 112.84 94.88C113.3 94.69 113.73 94.42 114.09 94.08C114.46 93.75 114.76 93.34 114.99 92.9C115.21 92.45 115.35 91.97 115.4 91.48L115.4 74.12C115.42 71.89 116.18 67.25 112.06 67.25L112.06 67.25Z" />
	<path id="Layer" class="shp5" d="M110.85 48.11L118.93 53.65C116.35 27.65 107.85 19.21 97.99 11.89C88.3 4.71 76.45 1.36 64.26 1.03L63.29 1.03L62.32 1.03C50.11 1.34 38.28 4.69 28.6 11.87C18.73 19.21 10.24 27.65 7.66 53.65L15.73 48.11C15.81 47.5 15.9 46.9 16 46.3C16.09 45.7 16.2 45.1 16.31 44.5C16.43 43.9 16.55 43.31 16.68 42.71C16.81 42.12 16.95 41.53 17.09 40.94C20.79 29.81 26.9 22.41 33.65 17.5C44.38 9.75 56.59 8.27 63.29 8.14C69.99 8.27 82.25 9.75 93 17.58C99.74 22.49 105.84 29.9 109.56 41.02C109.7 41.61 109.84 42.2 109.98 42.79C110.11 43.39 110.23 43.98 110.34 44.58C110.46 45.18 110.56 45.77 110.66 46.37C110.76 46.97 110.84 47.58 110.92 48.18L110.85 48.11Z" />
</svg>