<?xml version="1.0" encoding="UTF-8" standalone="no"?>
<svg
   xmlns:dc="http://purl.org/dc/elements/1.1/"
   xmlns:cc="http://creativecommons.org/ns#"
   xmlns:rdf="http://www.w3.org/1999/02/22-rdf-syntax-ns#"
   xmlns:svg="http://www.w3.org/2000/svg"
   xmlns="http://www.w3.org/2000/svg"
   xmlns:sodipodi="http://sodipodi.sourceforge.net/DTD/sodipodi-0.dtd"
   xmlns:inkscape="http://www.inkscape.org/namespaces/inkscape"
   id="png"
   viewBox="0 0 370 80"
   version="1.1"
   sodipodi:docname="title.svg"
   inkscape:version="1.0.1 (3bc2e813f5, 2020-09-07)">
  <metadata
     id="metadata35">
    <rdf:RDF>
      <cc:Work
         rdf:about="">
        <dc:format>image/svg+xml</dc:format>
        <dc:type
           rdf:resource="http://purl.org/dc/dcmitype/StillImage" />
      </cc:Work>
    </rdf:RDF>
  </metadata>
  <sodipodi:namedview
     pagecolor="#ffffff"
     bordercolor="#666666"
     borderopacity="1"
     objecttolerance="10"
     gridtolerance="10"
     guidetolerance="10"
     inkscape:pageopacity="0"
     inkscape:pageshadow="2"
     inkscape:window-width="1920"
     inkscape:window-height="1017"
     id="namedview33"
     showgrid="false"
     inkscape:zoom="2.4863403"
     inkscape:cx="170.62236"
     inkscape:cy="63.427063"
     inkscape:window-x="-8"
     inkscape:window-y="-8"
     inkscape:window-maximized="1"
     inkscape:current-layer="png" />
  <defs
     id="defs4">
    <style
       id="style2">.cls-1{fill:#5a5a5a;}.cls-2{fill:#aaa;}</style>
  </defs>
  <title
     id="title6">info-titre</title>
  <g
     id="PathID_2097"
     transform="matrix(0.35918408,0,-6.4125899e-4,0.36212211,5.7345561,19.468413)">
<path
   style="fill:#000000;fill-opacity:1"
   d="m 578.85,5.2 q 0,2.2 -1.5,3.7 -1.5,1.5 -3.7,1.5 -2.15,0 -3.65,-1.5 -1.55,-1.55 -1.55,-3.7 0,-2.15 1.55,-3.65 1.5,-1.55 3.65,-1.55 2.15,0 3.7,1.55 1.5,1.5 1.5,3.65 M 13.8,5.2 q 0,2.2 -1.5,3.7 -1.5,1.5 -3.7,1.5 Q 6.45,10.4 4.95,8.9 3.4,7.35 3.4,5.2 3.4,3.05 4.95,1.55 6.45,0 8.6,0 q 2.15,0 3.7,1.55 1.5,1.5 1.5,3.65"
   id="path1203" />

<path
   style="fill:none;stroke:#000000;stroke-width:6.5;stroke-linecap:round;stroke-linejoin:miter;stroke-miterlimit:4;stroke-opacity:1"
   d="m 879.5,38.25 q -9.7,0 -16.6,6.85 -6.8,6.8 -6.9,16.3 v 24.05 q 0.1,9.55 6.9,16.35 6.9,6.85 16.6,6.85"
   id="path1205" />

<path
   style="fill:none;stroke:#000000;stroke-width:6.5;stroke-linecap:round;stroke-linejoin:miter;stroke-miterlimit:4;stroke-opacity:1"
   d="m 832.55,38.25 q 9.7,0 16.6,6.85 6.75,6.8 6.85,16.3"
   id="path1207" />

<path
   style="fill:none;stroke:#000000;stroke-width:1.6;stroke-linecap:round;stroke-linejoin:round;stroke-miterlimit:3;stroke-opacity:1"
   d="M 864.55,144.9 H 858.3 V 154"
   id="path1209" />

<path
   style="fill:none;stroke:#000000;stroke-width:1.6;stroke-linecap:round;stroke-linejoin:round;stroke-miterlimit:3;stroke-opacity:1"
   d="m 864.55,140.9 h -6.3 v -5.6"
   id="path1211" />

<path
   style="fill:none;stroke:#000000;stroke-width:1.6;stroke-linecap:round;stroke-linejoin:round;stroke-miterlimit:3;stroke-opacity:1"
   d="m 847.5,140.9 h 6.25 v -5.6"
   id="path1213" />

<path
   style="fill:none;stroke:#000000;stroke-width:6.5;stroke-linecap:round;stroke-linejoin:miter;stroke-miterlimit:4;stroke-opacity:1"
   d="m 856,85.45 q -0.1,9.55 -6.85,16.35 -6.9,6.85 -16.6,6.85"
   id="path1215" />

<path
   style="fill:none;stroke:#000000;stroke-width:1.6;stroke-linecap:round;stroke-linejoin:round;stroke-miterlimit:3;stroke-opacity:1"
   d="m 847.5,144.9 h 6.25 v 9.1"
   id="path1217" />

<path
   style="fill:none;stroke:#000000;stroke-width:6.5;stroke-linecap:round;stroke-linejoin:miter;stroke-miterlimit:4;stroke-opacity:1"
   d="m 740.5,45.1 q -6.9,6.9 -6.9,16.6 v 23.45 q 0,9.75 6.9,16.65 6.85,6.85 16.6,6.85 9.7,0 16.6,-6.85 6.35,-6.4 6.85,-15.3 V 61.7 q 0,-9.7 -6.85,-16.6 -6.9,-6.85 -16.6,-6.85 -9.75,0 -16.6,6.85 z"
   id="path1219" />

<path
   style="fill:none;stroke:#000000;stroke-width:6.5;stroke-linecap:round;stroke-linejoin:miter;stroke-miterlimit:4;stroke-opacity:1"
   d="m 658.15,38.25 q -9.7,0 -16.6,6.85 -6.7,6.7 -6.9,16 v 24.05 q 0,9.75 6.9,16.65 6.9,6.85 16.6,6.85 9.7,0 16.6,-6.85 6.35,-6.4 6.85,-15.3 V 61.7 q 0,-9.7 -6.85,-16.6 -6.9,-6.85 -16.6,-6.85 z"
   id="path1221" />

<path
   style="fill:none;stroke:#000000;stroke-width:1.6;stroke-linecap:round;stroke-linejoin:round;stroke-miterlimit:3;stroke-opacity:1"
   d="m 658.15,152.7 v -1.5 q -0.05,1.65 -1.35,2.8 -1.35,1.2 -3.25,1.2 -1.9,0 -3.3,-1.2 -1.35,-1.2 -1.35,-2.9 v -7.3 q 0,-1.7 1.35,-2.9 1.4,-1.2 3.3,-1.2 1.9,0 3.25,1.2 1.3,1.15 1.35,2.8 v -9.65"
   id="path1223" />

<path
   style="fill:none;stroke:#000000;stroke-width:1.6;stroke-linecap:round;stroke-linejoin:round;stroke-miterlimit:3;stroke-opacity:1"
   d="m 653.55,147.45 4.6,-3.65 v -0.1 q 0.05,-1.65 1.35,-2.8 1.35,-1.2 3.25,-1.2 1.9,0 3.25,1.2 1.35,1.2 1.35,2.9 v 7.3 q 0,1.7 -1.35,2.9 -1.35,1.2 -3.25,1.2 -1.9,0 -3.25,-1.2 -1.3,-1.15 -1.35,-2.8 v -0.1 -7.3"
   id="path1225" />

<path
   style="fill:none;stroke:#000000;stroke-width:1.6;stroke-linecap:round;stroke-linejoin:round;stroke-miterlimit:3;stroke-opacity:1"
   d="m 757.75,146.55 q 0,0.65 -0.65,0.65 -0.65,0 -0.65,-0.65 0,-0.65 0.65,-0.65 0.65,0 0.65,0.65 z"
   id="path1227" />

<path
   style="fill:none;stroke:#000000;stroke-width:1.6;stroke-linecap:round;stroke-linejoin:round;stroke-miterlimit:3;stroke-opacity:1"
   d="m 752.95,137.9 h 8.25 q 1.9,0 3.2,1.35 1.35,1.35 1.35,3.2 v 8.25 q 0,1.85 -1.35,3.2 -1.3,1.3 -3.2,1.3 h -8.25 q -1.9,0 -3.2,-1.3 -1.35,-1.35 -1.35,-3.2 v -8.25 q 0,-1.85 1.35,-3.2 1.35,-1.35 3.2,-1.35 z"
   id="path1229" />

<path
   style="fill:none;stroke:#000000;stroke-width:1.6;stroke-linecap:round;stroke-linejoin:round;stroke-miterlimit:3;stroke-opacity:1"
   d="m 752.8,137.65 -1.4,-3.6"
   id="path1231" />

<path
   style="fill:none;stroke:#000000;stroke-width:6.5;stroke-linecap:round;stroke-linejoin:miter;stroke-miterlimit:4;stroke-opacity:1"
   d="M 634.65,5.2 V 61.1"
   id="path1233" />

<path
   style="fill:none;stroke:#000000;stroke-width:6.5;stroke-linecap:round;stroke-linejoin:miter;stroke-miterlimit:4;stroke-opacity:1"
   d="m 512.65,5.2 v 55.9 24.05 q 0,9.75 -6.85,16.65 -6.9,6.85 -16.6,6.85 -9.75,0 -16.6,-6.85 -6.4,-6.4 -6.85,-15.3 L 465.7,61.7 q 0,-9.7 6.9,-16.6 6.85,-6.85 16.6,-6.85 9.7,0 16.6,6.85 6.65,6.7 6.85,16"
   id="path1235" />

<path
   style="fill:none;stroke:#000000;stroke-width:1.6;stroke-linecap:round;stroke-linejoin:miter;stroke-miterlimit:4;stroke-opacity:1"
   d="m 489.45,133 v 1.9 6.5 1.15 0.45 q 0.05,-1.7 1.4,-2.85 1.35,-1.25 3.25,-1.25 1.9,0 3.25,1.25 1.35,1.15 1.35,2.9 v 7.3 q 0,1.7 -1.35,2.95 -1.35,1.15 -3.25,1.15 -1.9,0 -3.25,-1.15 -1.35,-1.2 -1.4,-2.9 0,1.7 -1.35,2.9 -1.35,1.15 -3.25,1.15 -1.9,0 -3.25,-1.15 -1.4,-1.25 -1.4,-2.95 v -7.3 q 0,-1.75 1.4,-2.9 1.35,-1.25 3.25,-1.25 1.9,0 3.25,1.25 1.2,1 1.35,2.4"
   id="path1237" />

<path
   style="fill:none;stroke:#000000;stroke-width:1.6;stroke-linecap:round;stroke-linejoin:miter;stroke-miterlimit:4;stroke-opacity:1"
   d="m 489.45,143 v 0.4 2.65 4.3 l 4.65,-3.7"
   id="path1239" />

<path
   style="fill:none;stroke:#000000;stroke-width:1.6;stroke-linecap:round;stroke-linejoin:miter;stroke-miterlimit:4;stroke-opacity:1"
   d="m 489.45,150.4 v -0.05"
   id="path1241" />

<path
   style="fill:none;stroke:#000000;stroke-width:1.6;stroke-linecap:round;stroke-linejoin:round;stroke-miterlimit:3;stroke-opacity:1"
   d="M 577.15,135.15 V 147.5"
   id="path1243" />

<path
   style="fill:none;stroke:#000000;stroke-width:1.6;stroke-linecap:round;stroke-linejoin:round;stroke-miterlimit:3;stroke-opacity:1"
   d="m 576.7,148.15 q -1.25,1.4 -3.05,1.4 -1.75,0 -3,-1.4 h -4.9 l 7.9,7.85 8,-7.85 z"
   id="path1245" />

<path
   style="fill:none;stroke:#000000;stroke-width:1.6;stroke-linecap:round;stroke-linejoin:round;stroke-miterlimit:3;stroke-opacity:1"
   d="m 582.65,142.9 -5.2,4"
   id="path1247" />

<path
   style="fill:none;stroke:#000000;stroke-width:1.6;stroke-linecap:round;stroke-linejoin:round;stroke-miterlimit:3;stroke-opacity:1"
   d="m 570.2,135.15 v 11.75 0.6"
   id="path1249" />

<path
   style="fill:none;stroke:#000000;stroke-width:6.5;stroke-linecap:round;stroke-linejoin:miter;stroke-miterlimit:4;stroke-opacity:1"
   d="m 573.65,38.25 v 70.4"
   id="path1251" />

<path
   style="fill:none;stroke:#000000;stroke-width:1.6;stroke-linecap:round;stroke-linejoin:round;stroke-miterlimit:3;stroke-opacity:1"
   d="m 564.65,142.9 5.55,4"
   id="path1253" />

<path
   style="fill:none;stroke:#000000;stroke-width:6.5;stroke-linecap:round;stroke-linejoin:miter;stroke-miterlimit:4;stroke-opacity:1"
   d="m 411.6,94.9 q -2.2,5.65 -8.1,9.6 -6.2,4.15 -13.25,4.15 -9.7,0 -16.6,-6.85 -6.4,-6.4 -6.85,-15.3 l -0.05,-24.2 v -0.6 q 0,-9.7 6.9,-16.6 6.9,-6.85 16.6,-6.85 9.7,0 16.6,6.85 6.85,6.9 6.85,16.6 0,9.7 -6.85,16.6 -6.9,6.85 -16.6,6.85 -9.7,0 -16.6,-6.85 -6.7,-6.7 -6.9,-16"
   id="path1255" />

<path
   style="fill:none;stroke:#000000;stroke-width:6.5;stroke-linecap:round;stroke-linejoin:miter;stroke-miterlimit:4;stroke-opacity:1"
   d="M 380.05,13.95 401.55,5.2"
   id="path1257" />

<path
   style="fill:none;stroke:#000000;stroke-width:1.6;stroke-linecap:round;stroke-linejoin:round;stroke-miterlimit:3;stroke-opacity:1"
   d="m 381.7,152.25 8.55,-4.4 v -4.45 l -6.5,2.9"
   id="path1259" />

<path
   style="fill:none;stroke:#000000;stroke-width:1.6;stroke-linecap:round;stroke-linejoin:round;stroke-miterlimit:3;stroke-opacity:1"
   d="m 390.25,143.4 v -4.2 l -5.4,2.4"
   id="path1261" />

<path
   style="fill:none;stroke:#000000;stroke-width:1.6;stroke-linecap:round;stroke-linejoin:round;stroke-miterlimit:3;stroke-opacity:1"
   d="m 386.95,136.7 3.3,-1.45 3.3,1.45"
   id="path1263" />

<path
   style="fill:none;stroke:#000000;stroke-width:1.6;stroke-linecap:round;stroke-linejoin:round;stroke-miterlimit:3;stroke-opacity:1"
   d="m 395.6,141.6 -5.35,-2.4 v -3.95"
   id="path1265" />

<path
   style="fill:none;stroke:#000000;stroke-width:1.6;stroke-linecap:round;stroke-linejoin:round;stroke-miterlimit:3;stroke-opacity:1"
   d="m 396.65,146.3 -6.4,-2.9"
   id="path1267" />

<path
   style="fill:none;stroke:#000000;stroke-width:1.6;stroke-linecap:round;stroke-linejoin:round;stroke-miterlimit:3;stroke-opacity:1"
   d="m 398.8,152.25 -8.55,-4.4 v 6.2"
   id="path1269" />

<path
   style="fill:none;stroke:#000000;stroke-width:6.5;stroke-linecap:round;stroke-linejoin:miter;stroke-miterlimit:4;stroke-opacity:1"
   d="M 267.95,108.65 267.9,62.3 v -0.6 q 0,-9.7 6.85,-16.6 6.85,-6.85 16.55,-6.85 9.7,0 16.6,6.85 6.85,6.9 6.85,16.6 0,9.7 -6.85,16.6 -6.9,6.85 -16.6,6.85 -7.25,0 -12.9,-3.8 l 36.35,27.3"
   id="path1271" />

<path
   style="fill:none;stroke:#000000;stroke-width:6.5;stroke-linecap:round;stroke-linejoin:miter;stroke-miterlimit:4;stroke-opacity:1"
   d="m 278.4,81.35 -1.7,-1.3 -1.95,-1.75 q -6.65,-6.7 -6.85,-16"
   id="path1273" />

<path
   style="fill:none;stroke:#000000;stroke-width:6.5;stroke-linecap:round;stroke-linejoin:miter;stroke-miterlimit:4;stroke-opacity:1"
   d="m 215.9,85.15 q 0,9.75 -6.9,16.65 -6.9,6.85 -16.6,6.85 -9.7,0 -16.6,-6.85 -6.35,-6.4 -6.8,-15.3 l -0.05,-0.65 V 61.7 q 0,-9.7 6.85,-16.6 6.9,-6.85 16.6,-6.85 9.7,0 16.6,6.85 6.9,6.9 6.9,16.6"
   id="path1275" />

<path
   style="fill:none;stroke:#000000;stroke-width:1.6;stroke-linecap:round;stroke-linejoin:round;stroke-miterlimit:3;stroke-opacity:1"
   d="m 185.25,141.2 -0.65,0.95 q -1.15,2 -1.15,4.35 0,3.65 2.55,6.2 2.55,2.55 6.15,2.55 3.65,0 6.2,-2.55 2.55,-2.55 2.55,-6.2 0,-2.2 -1,-4.25 l -0.5,-0.9 q -0.9,-1.4 -2.2,-2.3 v 5.4 l -0.05,0.65 q -0.2,1.6 -1.35,2.75 -1.4,1.4 -3.4,1.4 -1.95,0 -3.35,-1.4 -1.15,-1.15 -1.35,-2.75 l -0.05,-0.45 v -5.6 q -1.45,0.85 -2.4,2.15 l -2.3,-4.95"
   id="path1277" />

<path
   style="fill:none;stroke:#000000;stroke-width:1.6;stroke-linecap:round;stroke-linejoin:round;stroke-miterlimit:3;stroke-opacity:1"
   d="m 201.85,136.25 -2.45,5.1"
   id="path1279" />

<path
   style="fill:none;stroke:#000000;stroke-width:1.6;stroke-linecap:round;stroke-linejoin:round;stroke-miterlimit:3;stroke-opacity:1"
   d="m 187.65,139.05 v -5"
   id="path1281" />

<path
   style="fill:none;stroke:#000000;stroke-width:1.6;stroke-linecap:round;stroke-linejoin:round;stroke-miterlimit:3;stroke-opacity:1"
   d="M 197.15,145.1 V 134"
   id="path1283" />

<path
   style="fill:none;stroke:#000000;stroke-width:1.6;stroke-linecap:round;stroke-linejoin:round;stroke-miterlimit:3;stroke-opacity:1"
   d="m 282.8,140.9 h 8.5 v -2.25 q -0.7,0 -1.2,-0.5 -0.45,-0.5 -0.45,-1.2 0,-0.7 0.45,-1.2 0.5,-0.5 1.2,-0.5 0.7,0 1.2,0.5 0.5,0.5 0.5,1.2 0,0.7 -0.5,1.2 -0.5,0.5 -1.2,0.5"
   id="path1285" />

<path
   style="fill:none;stroke:#000000;stroke-width:1.6;stroke-linecap:round;stroke-linejoin:round;stroke-miterlimit:3;stroke-opacity:1"
   d="m 299.85,144.9 h -1.35 q -0.1,3.4 -2.2,6.2 -2.15,2.9 -5,2.85 -2.85,0.05 -5,-2.85 -2.05,-2.8 -2.15,-6.2 h -1.35"
   id="path1287" />

<path
   style="fill:none;stroke:#000000;stroke-width:1.6;stroke-linecap:round;stroke-linejoin:round;stroke-miterlimit:3;stroke-opacity:1"
   d="m 299.85,140.9 h -8.55 v 13.05"
   id="path1289" />

<path
   style="fill:none;stroke:#000000;stroke-width:6.5;stroke-linecap:round;stroke-linejoin:miter;stroke-miterlimit:4;stroke-opacity:1"
   d="m 70,38.25 0.05,22.55 q 0.3,-9.15 6.8,-15.7 6.9,-6.85 16.6,-6.85 9.75,0 16.65,6.85 6.85,6.9 6.85,16.6 v 46.95"
   id="path1291" />

<path
   style="fill:none;stroke:#000000;stroke-width:1.6;stroke-linecap:round;stroke-linejoin:round;stroke-miterlimit:3;stroke-opacity:1"
   d="m 18,139.85 -5.5,-4.65 -0.05,12.3"
   id="path1293" />

<path
   style="fill:none;stroke:#000000;stroke-width:1.6;stroke-linecap:round;stroke-linejoin:round;stroke-miterlimit:3;stroke-opacity:1"
   d="m 0,139.85 5.5,-4.65 0.05,12.3"
   id="path1295" />

<path
   style="fill:none;stroke:#000000;stroke-width:1.6;stroke-linecap:round;stroke-linejoin:round;stroke-miterlimit:3;stroke-opacity:1"
   d="M 1.05,148.15 9,156 l 8,-7.85 h -5 q -1.25,1.4 -3,1.4 -1.8,0 -3.05,-1.4 z"
   id="path1297" />

<path
   style="fill:none;stroke:#000000;stroke-width:1.6;stroke-linecap:round;stroke-linejoin:round;stroke-miterlimit:3;stroke-opacity:1"
   d="m 88.8,141.85 q -1.6,1.6 -1.65,3.85 v 0.1 0.15 q 0.05,2.2 1.65,3.75 1.6,1.65 3.9,1.65 2.3,0 3.95,-1.65 l 0.6,-0.65 q 1.05,-1.4 1.05,-3.25 0,-2.3 -1.65,-3.95 -1.55,-1.6 -3.8,-1.65 H 92.7 l -0.45,0.05 -0.45,0.05 -1.4,0.4 q -0.75,0.35 -1.35,0.9 z"
   id="path1299" />

<path
   style="fill:none;stroke:#000000;stroke-width:1.6;stroke-linecap:round;stroke-linejoin:round;stroke-miterlimit:3;stroke-opacity:1"
   d="m 97.4,134.05 2.4,6 -4.9,0.1 -2.05,0.05"
   id="path1301" />

<path
   style="fill:none;stroke:#000000;stroke-width:1.6;stroke-linecap:round;stroke-linejoin:round;stroke-miterlimit:3;stroke-opacity:1"
   d="m 90.4,140.7 -2.65,-6.65"
   id="path1303" />

<path
   style="fill:none;stroke:#000000;stroke-width:1.6;stroke-linecap:round;stroke-linejoin:round;stroke-miterlimit:3;stroke-opacity:1"
   d="m 94.9,140.15 -2.4,-6.1"
   id="path1305" />

<path
   style="fill:none;stroke:#000000;stroke-width:1.6;stroke-linecap:round;stroke-linejoin:round;stroke-miterlimit:3;stroke-opacity:1"
   d="m 99.8,155.2 -2.55,-6.15"
   id="path1307" />

<path
   style="fill:none;stroke:#000000;stroke-width:1.6;stroke-linecap:round;stroke-linejoin:round;stroke-miterlimit:3;stroke-opacity:1"
   d="m 87.15,145.95 v 9.25"
   id="path1309" />

<path
   style="fill:none;stroke:#000000;stroke-width:6.5;stroke-linecap:round;stroke-linejoin:miter;stroke-miterlimit:4;stroke-opacity:1"
   d="m 8.6,38.25 v 70.4"
   id="path1311" />

<path
   style="fill:none;stroke:#000000;stroke-width:6.5;stroke-linecap:round;stroke-linejoin:miter;stroke-miterlimit:4;stroke-opacity:1"
   d="M 70.05,108.65 V 60.8"
   id="path1313" />

</g>
</svg>
